<?xml version="1.0" encoding="UTF-8"?>
<!DOCTYPE svg PUBLIC "-//W3C//DTD SVG 1.1//EN" "http://www.w3.org/Graphics/SVG/1.1/DTD/svg11.dtd">
<svg xmlns="http://www.w3.org/2000/svg" xmlns:xlink="http://www.w3.org/1999/xlink" version="1.1" width="571px" height="651px" viewBox="-0.5 -0.5 571 651"><defs><style type="text/css">@import url(https://fonts.googleapis.com/css?family=Architects+Daughter);&#xa;</style></defs><g><path d="M 238.63 32.5 C 204.72 32.5 196.25 65 223.37 71.5 C 196.25 85.8 226.76 117 248.8 104 C 264.05 130 314.9 130 331.85 104 C 365.75 104 365.75 78 344.56 65 C 365.75 39 331.85 13 302.19 26 C 281 6.5 247.1 6.5 238.63 32.5 Z" fill="rgb(255, 255, 255)" stroke="rgb(0, 0, 0)" stroke-miterlimit="10" pointer-events="all"/><g fill="rgb(0, 0, 0)" font-family="Helvetica" text-anchor="middle" font-size="18px"><text x="280.5" y="61.5">Upstream</text><text x="280.5" y="83.5">DNS server</text></g><path d="M 281 340 L 281 276.37" fill="none" stroke="rgb(0, 0, 0)" stroke-miterlimit="10" pointer-events="stroke"/><path d="M 281 271.12 L 284.5 278.12 L 281 276.37 L 277.5 278.12 Z" fill="rgb(0, 0, 0)" stroke="rgb(0, 0, 0)" stroke-miterlimit="10" pointer-events="all"/><path d="M 261 340 L 301 340 L 331 370 L 331 410 L 301 440 L 261 440 L 231 410 L 231 370 Z" fill="#ff0000" stroke="rgb(0, 0, 0)" stroke-miterlimit="10" pointer-events="all"/><g fill="rgb(0, 0, 0)" font-family="Helvetica" text-anchor="middle" font-size="18px"><text x="280.5" y="386.5">Pi-hole</text><text x="280.5" y="408.5">DNS server</text></g><path d="M 281 190 L 281 156.56 L 281.27 129.48" fill="none" stroke="rgb(0, 0, 0)" stroke-miterlimit="10" pointer-events="stroke"/><path d="M 281.33 124.23 L 284.76 131.26 L 281.27 129.48 L 277.76 131.19 Z" fill="rgb(0, 0, 0)" stroke="rgb(0, 0, 0)" stroke-miterlimit="10" pointer-events="all"/><rect x="221" y="190" width="120" height="80" fill="rgb(255, 255, 255)" stroke="rgb(0, 0, 0)" pointer-events="all"/><g fill="rgb(0, 0, 0)" font-family="Helvetica" text-anchor="middle" font-size="18px"><text x="280.5" y="215.5">DNS server</text><text x="280.5" y="237.5">on</text><text x="280.5" y="259.5">home router</text></g><ellipse cx="90" cy="345" rx="40" ry="40" fill="rgb(255, 255, 255)" stroke="rgb(0, 0, 0)" pointer-events="all"/><g fill="rgb(0, 0, 0)" font-family="Helvetica" text-anchor="middle" font-size="18px"><text x="89.5" y="352.5">Printer</text></g><ellipse cx="40" cy="440" rx="40" ry="40" fill="rgb(255, 255, 255)" stroke="rgb(0, 0, 0)" pointer-events="all"/><g fill="rgb(0, 0, 0)" font-family="Helvetica" text-anchor="middle" font-size="18px"><text x="39.5" y="447.5">PC</text></g><ellipse cx="100" cy="540" rx="40" ry="40" fill="rgb(255, 255, 255)" stroke="rgb(0, 0, 0)" pointer-events="all"/><g fill="rgb(0, 0, 0)" font-family="Helvetica" text-anchor="middle" font-size="18px"><text x="99.5" y="547.5">Laptop</text></g><ellipse cx="220" cy="610" rx="40" ry="40" fill="rgb(255, 255, 255)" stroke="rgb(0, 0, 0)" pointer-events="all"/><g fill="rgb(0, 0, 0)" font-family="Helvetica" text-anchor="middle" font-size="18px"><text x="219.5" y="617.5">Tablet</text></g><ellipse cx="350" cy="610" rx="40" ry="40" fill="rgb(255, 255, 255)" stroke="rgb(0, 0, 0)" pointer-events="all"/><g fill="rgb(0, 0, 0)" font-family="Helvetica" text-anchor="middle" font-size="18px"><text x="349.5" y="617.5">Fridge</text></g><ellipse cx="440" cy="530" rx="40" ry="40" fill="rgb(255, 255, 255)" stroke="rgb(0, 0, 0)" pointer-events="all"/><g fill="rgb(0, 0, 0)" font-family="Helvetica" text-anchor="middle" font-size="18px"><text x="439.5" y="526.5">Game</text><text x="439.5" y="548.5">console</text></g><ellipse cx="460" cy="345" rx="40" ry="40" fill="rgb(255, 255, 255)" stroke="rgb(0, 0, 0)" pointer-events="all"/><g fill="rgb(0, 0, 0)" font-family="Helvetica" text-anchor="middle" font-size="18px"><text x="459.5" y="352.5">TV</text></g><ellipse cx="525" cy="435" rx="45" ry="45" fill="rgb(255, 255, 255)" stroke="rgb(0, 0, 0)" pointer-events="all"/><g fill="rgb(0, 0, 0)" font-family="Helvetica" text-anchor="middle" font-size="18px"><text x="524.5" y="420.5">Front</text><text x="524.5" y="442.5">door</text><text x="524.5" y="464.5">camera</text></g><path d="M 130 345 L 224.89 366.21" fill="none" stroke="rgb(0, 0, 0)" stroke-miterlimit="10" pointer-events="stroke"/><path d="M 230.01 367.36 L 222.41 369.24 L 224.89 366.21 L 223.94 362.41 Z" fill="rgb(0, 0, 0)" stroke="rgb(0, 0, 0)" stroke-miterlimit="10" pointer-events="all"/><path d="M 80 440 L 223.76 411.25" fill="none" stroke="rgb(0, 0, 0)" stroke-miterlimit="10" pointer-events="stroke"/><path d="M 228.9 410.22 L 222.73 415.02 L 223.76 411.25 L 221.35 408.16 Z" fill="rgb(0, 0, 0)" stroke="rgb(0, 0, 0)" stroke-miterlimit="10" pointer-events="all"/><path d="M 128.28 511.72 L 240.87 428.78" fill="none" stroke="rgb(0, 0, 0)" stroke-miterlimit="10" pointer-events="stroke"/><path d="M 245.1 425.66 L 241.54 432.63 L 240.87 428.78 L 237.39 427 Z" fill="rgb(0, 0, 0)" stroke="rgb(0, 0, 0)" stroke-miterlimit="10" pointer-events="all"/><path d="M 220 570 L 261.74 448.22" fill="none" stroke="rgb(0, 0, 0)" stroke-miterlimit="10" pointer-events="stroke"/><path d="M 263.44 443.26 L 264.48 451.01 L 261.74 448.22 L 257.86 448.74 Z" fill="rgb(0, 0, 0)" stroke="rgb(0, 0, 0)" stroke-miterlimit="10" pointer-events="all"/><path d="M 339.21 571.48 L 304.64 450.12" fill="none" stroke="rgb(0, 0, 0)" stroke-miterlimit="10" pointer-events="stroke"/><path d="M 303.21 445.08 L 308.49 450.85 L 304.64 450.12 L 301.76 452.77 Z" fill="rgb(0, 0, 0)" stroke="rgb(0, 0, 0)" stroke-miterlimit="10" pointer-events="all"/><path d="M 411.72 501.72 L 320.97 428.98" fill="none" stroke="rgb(0, 0, 0)" stroke-miterlimit="10" pointer-events="stroke"/><path d="M 316.87 425.7 L 324.52 427.35 L 320.97 428.98 L 320.15 432.81 Z" fill="rgb(0, 0, 0)" stroke="rgb(0, 0, 0)" stroke-miterlimit="10" pointer-events="all"/><path d="M 480 435 L 339.15 407.04" fill="none" stroke="rgb(0, 0, 0)" stroke-miterlimit="10" pointer-events="stroke"/><path d="M 334 406.02 L 341.54 403.95 L 339.15 407.04 L 340.18 410.81 Z" fill="rgb(0, 0, 0)" stroke="rgb(0, 0, 0)" stroke-miterlimit="10" pointer-events="all"/><path d="M 420 345 L 339 369.46" fill="none" stroke="rgb(0, 0, 0)" stroke-miterlimit="10" pointer-events="stroke"/><path d="M 333.97 370.98 L 339.66 365.6 L 339 369.46 L 341.68 372.3 Z" fill="rgb(0, 0, 0)" stroke="rgb(0, 0, 0)" stroke-miterlimit="10" pointer-events="all"/></g></svg>